# xmcd
#
# Track frame offsets:
#	150
#	15247
#	32086
#	46393
#	55534
#	71440
#	87282
#	94789
#	107226
#	120304
#	132900
#	150325
#	161852
#	171747
#	180699
#	197614
#	217849
#	230528
#	249690
#	270030
#	278799
#	288768
#	300778
#	316697
#	332190
#	346774
#
# Disc length: 4721 seconds
#
# Revision: 0
# Processed by: cddbd v1.5.2PL0 Copyright (c) Steve Scherf et al.
# Submitted via: EasyCDDAExtractor 16.0.6.1
#
DISCID=54126f1a
DTITLE=Συλλογικός δίσκος - Λαϊκοί συνθέτες Α6-Μητσάκης Γιώργος
DYEAR=2010
DGENRE=Λαϊκή
TTITLE0=Γλυκερία - Τα δαχτυλίδια
TTITLE1=Καζαντζίδης Στέλιος - Ο ψαράς
TTITLE2=Πάνου Πόλυ - Στον Πειραιά συννέφιασε
TTITLE3=Λαμπράκη Χαρούλα - Το κομπολογάκι
TTITLE4=Μπέλλου Σωτηρία - Κάτω απ' το σβηστό φανάρι
TTITLE5=Μαριώ - Μιά γυναίκα, δύο άντρες
TTITLE6=Λαμπράκη Χαρούλα-Παιδιά της Πάτρας - Στα μπουζούκια να με πας
TTITLE7=Μπογδάνος Γιάννης - Η θάλασσα του Πειραιά
TTITLE8=Λαμπράκη Χαρούλα - Η πρώτη αγάπη σου είμαι εγώ
TTITLE9=Ζαγοραίος Σπύρος-Ζαγοραίου Ζωή - Ο μπαρμπα Θωμάς
TTITLE10=Πάνου Πόλυ - Ένα καράβι απ' τον Περαία
TTITLE11=Ιακωβίδης Αγάθωνας - Όπου Γιώργος και μάλαμα
TTITLE12=Νταράλας Λουκάς - Όσο βαριά είναι τα σίδερα
TTITLE13=Γκρέϋ Καίτη - Παλαμάκια
TTITLE14=Ντάλη Καίτη - Το παιδί του δρόμου
TTITLE15=Αρβανιτάκη Ελευθερία-Σφακιανάκης Άγγ.-Στρατηγόπουλος Στρ. - Στην μαγε
TTITLE15=μένη Αραπιά
TTITLE16=Κύπριος Στράτος - Στην καλύβα την δική μου
TTITLE17=Κερμανίδης Πόλυς - Τα πλοία πεθαίνουν στα λιμάνια
TTITLE18=Μπάσης Δημήτρης - Συννεφιές
TTITLE19=Λαμπράκη Χαρούλα-Παιδιά της Πάτρας - Το παιδί που μπήκε τώρα
TTITLE20=Βάνου Τζένη - Ψιλή βροχούλα έπιασε
TTITLE21=Λίντα Μαίρη - Το καβγαδάκι
TTITLE22=Καζαντζίδης Στέλιος - Το καπηλειό
TTITLE23=Μπέλλου Σωτηρία - Το δικό σου το μαράζι
TTITLE24=Γιουλάκης Νίκος - Τα κάστρα του Γεντί Κουλέ
TTITLE25=Λαμπράκη Χαρούλα - Το πάπλωμα
EXTD=
EXTT0=
EXTT1=
EXTT2=
EXTT3=
EXTT4=
EXTT5=
EXTT6=
EXTT7=
EXTT8=
EXTT9=
EXTT10=
EXTT11=
EXTT12=
EXTT13=
EXTT14=
EXTT15=
EXTT16=
EXTT17=
EXTT18=
EXTT19=
EXTT20=
EXTT21=
EXTT22=
EXTT23=
EXTT24=
EXTT25=
PLAYORDER=
